<svg width="47" height="47" viewBox="0 0 47 47" fill="none" xmlns="http://www.w3.org/2000/svg">
<mask id="mask0_6390_274" style="mask-type:alpha" maskUnits="userSpaceOnUse" x="0" y="0" width="47" height="47">
<rect width="47" height="47" fill="#D9D9D9"/>
</mask>
<g mask="url(#mask0_6390_274)">
<path d="M23.5002 23.5C21.346 23.5 19.5019 22.733 17.9679 21.199C16.4338 19.665 15.6668 17.8209 15.6668 15.6667C15.6668 13.5125 16.4338 11.6684 17.9679 10.1344C19.5019 8.60039 21.346 7.83337 23.5002 7.83337C25.6543 7.83337 27.4984 8.60039 29.0325 10.1344C30.5665 11.6684 31.3335 13.5125 31.3335 15.6667C31.3335 17.8209 30.5665 19.665 29.0325 21.199C27.4984 22.733 25.6543 23.5 23.5002 23.5ZM7.8335 39.1667V33.6834C7.8335 32.5737 8.11909 31.5537 8.69027 30.6235C9.26145 29.6933 10.0203 28.9834 10.9668 28.4938C12.9904 27.482 15.0467 26.7231 17.1356 26.2172C19.2245 25.7113 21.346 25.4584 23.5002 25.4584C25.6543 25.4584 27.7759 25.7113 29.8647 26.2172C31.9536 26.7231 34.0099 27.482 36.0335 28.4938C36.98 28.9834 37.7389 29.6933 38.3101 30.6235C38.8812 31.5537 39.1668 32.5737 39.1668 33.6834V39.1667H7.8335ZM11.7502 35.25H35.2502V33.6834C35.2502 33.3243 35.1604 32.998 34.9809 32.7042C34.8014 32.4105 34.5647 32.182 34.271 32.0188C32.5085 31.1375 30.7297 30.4766 28.9345 30.036C27.1394 29.5954 25.3279 29.375 23.5002 29.375C21.6724 29.375 19.8609 29.5954 18.0658 30.036C16.2706 30.4766 14.4918 31.1375 12.7293 32.0188C12.4356 32.182 12.1989 32.4105 12.0194 32.7042C11.8399 32.998 11.7502 33.3243 11.7502 33.6834V35.25ZM23.5002 19.5834C24.5772 19.5834 25.4993 19.1999 26.2663 18.4329C27.0333 17.6658 27.4168 16.7438 27.4168 15.6667C27.4168 14.5896 27.0333 13.6676 26.2663 12.9006C25.4993 12.1335 24.5772 11.75 23.5002 11.75C22.4231 11.75 21.501 12.1335 20.734 12.9006C19.967 13.6676 19.5835 14.5896 19.5835 15.6667C19.5835 16.7438 19.967 17.6658 20.734 18.4329C21.501 19.1999 22.4231 19.5834 23.5002 19.5834Z" fill="#625F5F" fill-opacity="0.71"/>
</g>
</svg>
